HIERARCHY
ROOT Hips
{
	OFFSET 0.00000 0.00000 0.00000
	CHANNELS 6 Xposition Yposition Zposition Zrotation Yrotation Xrotation 
	JOINT LHipJoint
	{
		OFFSET 0 0 0
		CHANNELS 3 Zrotation Yrotation Xrotation
		JOINT LeftUpLeg
		{
			OFFSET 1.53139 -1.83434 0.76626
			CHANNELS 3 Zrotation Yrotation Xrotation
			JOINT LeftLeg
			{
				OFFSET 2.56112 -7.03663 0.00000
				CHANNELS 3 Zrotation Yrotation Xrotation
				JOINT LeftFoot
				{
					OFFSET 2.59983 -7.14299 0.00000
					CHANNELS 3 Zrotation Yrotation Xrotation
					JOINT LeftToeBase
					{
						OFFSET 0.13742 -0.37757 2.00054
						CHANNELS 3 Zrotation Yrotation Xrotation
						End Site
						{
							OFFSET 0.00000 -0.00000 1.02897
						}
					}
				}
			}
		}
	}
	JOINT RHipJoint
	{
		OFFSET 0 0 0
		CHANNELS 3 Zrotation Yrotation Xrotation
		JOINT RightUpLeg
		{
			OFFSET -1.40122 -1.83435 0.76627
			CHANNELS 3 Zrotation Yrotation Xrotation
			JOINT RightLeg
			{
				OFFSET -2.54052 -6.98003 0.00000
				CHANNELS 3 Zrotation Yrotation Xrotation
				JOINT RightFoot
				{
					OFFSET -2.63179 -7.23079 0.00000
					CHANNELS 3 Zrotation Yrotation Xrotation
					JOINT RightToeBase
					{
						OFFSET -0.24131 -0.66299 2.03908
						CHANNELS 3 Zrotation Yrotation Xrotation
						End Site
						{
							OFFSET -0.00000 -0.00000 1.07391
						}
					}
				}
			}
		}
	}
	JOINT LowerBack
	{
		OFFSET 0 0 0
		CHANNELS 3 Zrotation Yrotation Xrotation
		JOINT Spine
		{
			OFFSET 0.01174 2.10302 -0.29778
			CHANNELS 3 Zrotation Yrotation Xrotation
			JOINT Spine1
			{
				OFFSET 0.00772 2.13227 -0.01247
				CHANNELS 3 Zrotation Yrotation Xrotation
				JOINT Neck
				{
					OFFSET 0 0 0
					CHANNELS 3 Zrotation Yrotation Xrotation
					JOINT Neck1
					{
						OFFSET -0.09219 1.60848 0.31481
						CHANNELS 3 Zrotation Yrotation Xrotation
						JOINT Head
						{
							OFFSET 0.13974 1.65456 -0.31134
							CHANNELS 3 Zrotation Yrotation Xrotation
							End Site
							{
								OFFSET 0.04742 1.69515 -0.14578
							}
						}
					}
				}
				JOINT LeftShoulder
				{
					OFFSET 0 0 0
					CHANNELS 3 Zrotation Yrotation Xrotation
					JOINT LeftArm
					{
						OFFSET 3.24909 1.02882 -0.23993
						CHANNELS 3 Zrotation Yrotation Xrotation
						JOINT LeftForeArm
						{
							OFFSET 5.32955 -0.00000 -0.00000
							CHANNELS 3 Zrotation Yrotation Xrotation
							JOINT LeftHand
							{
								OFFSET 3.69232 -0.00000 -0.00000
								CHANNELS 3 Zrotation Yrotation Xrotation
								JOINT LeftFingerBase
								{
									OFFSET 0 0 0
									CHANNELS 3 Zrotation Yrotation Xrotation
									JOINT LeftHandIndex1
									{
										OFFSET 0.53660 -0.00000 -0.00000
										CHANNELS 3 Zrotation Yrotation Xrotation
										End Site
										{
											OFFSET 0.43262 -0.00000 -0.00000
										}
									}
								}
								JOINT LThumb
								{
									OFFSET 0 0 0
									CHANNELS 3 Zrotation Yrotation Xrotation
									End Site
									{
										OFFSET 0.43922 -0.00000 0.43922
									}
								}
							}
						}
					}
				}
				JOINT RightShoulder
				{
					OFFSET 0 0 0
					CHANNELS 3 Zrotation Yrotation Xrotation
					JOINT RightArm
					{
						OFFSET -3.21387 0.93002 -0.34594
						CHANNELS 3 Zrotation Yrotation Xrotation
						JOINT RightForeArm
						{
							OFFSET -5.23431 -0.00000 0.00000
							CHANNELS 3 Zrotation Yrotation Xrotation
							JOINT RightHand
							{
								OFFSET -3.55301 -0.00000 -0.00000
								CHANNELS 3 Zrotation Yrotation Xrotation
								JOINT RightFingerBase
								{
									OFFSET 0 0 0
									CHANNELS 3 Zrotation Yrotation Xrotation
									JOINT RightHandIndex1
									{
										OFFSET -0.77252 -0.00000 -0.00000
										CHANNELS 3 Zrotation Yrotation Xrotation
										End Site
										{
											OFFSET -0.62283 -0.00000 -0.00000
										}
									}
								}
								JOINT RThumb
								{
									OFFSET 0 0 0
									CHANNELS 3 Zrotation Yrotation Xrotation
									End Site
									{
										OFFSET -0.63234 -0.00000 0.63234
									}
								}
							}
						}
					}
				}
			}
		}
	}
}
MOTION
Frames: 8
Frame Time: 0.0769231
0.00 0.00 0.00 0 0 0 0 0 0 -21 0 0 0 0 0 0 0 0 0 0 0 0 0 0 21 0 0 0 0 0 0 0 0 0 0 0 0 0 0 0 0 0 0 0 0 0 0 -16 0 0 21 0 0 11 0 0 0 -8 0 0 0 0 0 0 0 0 0 0 0 0 0 0 0 0 0 0 0 0 8 0 0 0 0 0 0 0 0 0 0 0 0 0 0 0 0 0
0.00 0.00 0.00 -1.8608 38.2531 0.9581 0.0000 0.0000 0.0000 -14.9684 -9.3269 -25.0956 2.5957 10.0099 29.0087 0.0473 -1.9862 -3.8953 0.4240 -4.1793 -11.5817 0.0000 0.0000 0.0000 28.3622 -3.2299 0.0610 -0.8065 -5.7314 16.0071 -0.7251 -2.4387 -17.1484 -0.2388 -3.1449 8.6824 2.7999 1.5127 12.8344 1.3466 2.4930 2.2326 -0.5844 1.2093 -4.7849 -13.7348 -7.0497 -16.5229 7.9169 -8.3728 33.2372 4.2187 -4.1077 15.4329 0.0000 -0.0000 0.0000 -89.6736 2.4990 21.8107 15.6254 -25.0101 -3.4861 -0.0000 -0.0000 5.1059 19.6891 22.2914 7.7297 -7.1250 0.0000 -0.0000 -9.6008 53.2545 -1.9636 0.0000 -0.0000 0.0000 88.2318 1.1431 14.4439 -14.0075 22.7455 -2.8310 0.0000 0.0000 11.9531 -15.7745 6.7504 -1.9018 7.1250 -0.0000 -0.0000 8.0660 -22.9851 4.3175
0.00 0.00 0.00 -2.6944 37.1931 1.3466 0.0000 0.0000 0.0000 -15.0152 -9.7803 -23.9241 0.5652 4.8152 13.3822 0.0899 0.6641 -5.9460 0.3263 -3.6716 -10.1547 0.0000 0.0000 0.0000 28.7055 -5.3420 3.6598 -0.4274 -4.1956 11.6276 -0.6779 -1.5135 -16.1727 -0.0238 -0.9959 2.7376 3.2664 2.0220 12.0146 1.6482 3.2005 2.5148 -0.6046 1.5699 -4.0094 -13.9277 -6.8830 -15.9842 7.9429 -8.1176 33.0815 4.3176 -4.0260 15.2091 0.0000 -0.0000 0.0000 -90.3089 3.3286 18.4839 14.0530 -22.8105 -2.8486 -0.0000 -0.0000 6.0479 23.0594 24.4916 10.0084 -7.1250 0.0000 -0.0000 -6.9800 56.1841 -1.9213 0.0000 -0.0000 0.0000 87.6389 2.0129 14.3627 -13.2503 21.6528 -2.5449 0.0000 0.0000 13.1094 -15.0243 6.9981 -1.8730 7.1250 -0.0000 -0.0000 8.6049 -22.7587 4.6573
0.00 0.00 0.00 -0.4324 35.4392 2.3410 0.0000 0.0000 0.0000 -20.3592 -4.1385 -15.8493 0.3964 4.0427 11.1967 0.0009 -0.0242 0.5738 0.0000 0.0397 0.1090 0.0000 0.0000 0.0000 23.8499 -5.6575 5.1454 -1.9703 -8.8039 25.1838 -0.1546 -1.2076 -7.9713 -0.1427 2.4343 -6.7075 -0.4397 2.0811 11.4336 0.5241 2.7571 2.3541 0.3877 1.3825 -3.9896 -13.2509 -6.5695 -16.5686 8.2109 -7.9674 34.6141 4.4081 -3.8517 16.0381 -0.0000 0.0000 0.0000 -89.3080 4.0253 14.6529 13.1095 -21.4474 -2.4932 -0.0000 -0.0000 9.4413 19.4788 20.7751 7.1509 -7.1250 0.0000 -0.0000 -9.2552 51.6674 -1.5306 -0.0000 0.0000 0.0000 89.4838 1.9294 15.5925 -14.9468 24.0719 -3.2042 0.0000 0.0000 10.4218 -16.9447 7.6301 -2.3166 7.1250 -0.0000 -0.0000 7.1854 -22.0296 3.9964
0.00 0.00 0.00 0.7494 35.9407 1.9561 0.0000 0.0000 0.0000 -22.6286 -0.2240 -11.5828 0.2412 3.1608 8.7267 -0.0247 -2.8942 1.8895 0.0083 0.5900 1.6212 0.0000 0.0000 0.0000 21.0985 -6.3592 -1.6555 -4.7895 -13.1427 39.9051 -0.0717 -3.1113 4.9120 -0.0609 -1.5926 4.3810 -2.2548 1.9296 11.9532 0.1688 2.3134 2.3899 1.0875 1.1841 -4.2882 -13.2198 -6.3356 -15.5569 8.2154 -7.7515 34.6228 4.4619 -3.7774 15.7635 -0.0000 0.0000 0.0000 -88.2718 3.2791 16.8971 14.2426 -23.0805 -2.9225 -0.0000 -0.0000 8.3200 19.5589 21.8671 7.5378 -7.1250 0.0000 -0.0000 -9.5705 52.7979 -1.8499 -0.0000 0.0000 0.0000 89.5095 1.5218 16.4321 -15.3839 24.6782 -3.3846 0.0000 0.0000 10.4720 -16.5285 7.7096 -2.2798 7.1250 -0.0000 -0.0000 7.4859 -21.9663 4.1772
0.00 0.00 0.00 3.2477 35.6083 2.1568 0.0000 0.0000 0.0000 -25.7825 3.3141 -3.4872 0.0000 0.0000 0.0000 0.0353 -2.7645 5.6119 0.0383 1.2627 3.4720 0.0000 0.0000 0.0000 16.9179 -4.9231 -9.6467 -8.8245 -16.6935 55.4813 -0.6477 -6.3221 14.3727 -0.4522 -4.3139 11.9615 -4.6831 1.9841 12.2064 -0.5551 2.0532 2.7864 1.7373 1.0749 -4.0556 -13.3006 -6.0143 -15.3000 7.9549 -7.1821 34.9995 4.4906 -3.5938 15.7921 0.0000 0.0000 0.0000 -86.9965 0.8877 18.9701 15.6264 -25.0115 -3.4865 -0.0000 -0.0000 5.7057 19.3534 21.7250 7.4076 -7.1250 0.0000 -0.0000 -9.7229 52.6160 -1.8364 0.0000 0.0000 0.0000 89.7908 2.3979 16.7312 -15.6428 25.0339 -3.4934 0.0000 0.0000 10.3214 -16.5196 7.5970 -2.2454 7.1250 -0.0000 -0.0000 7.4953 -22.0829 4.1624
0.00 0.00 0.00 4.3172 36.1873 1.7030 0.0000 0.0000 0.0000 -27.1624 4.1339 -1.0693 0.0890 1.9237 5.2949 -0.0477 -4.3126 -0.4499 0.0709 1.7177 4.7261 0.0000 0.0000 0.0000 14.5137 -3.3369 -19.7005 -11.2822 -18.0704 63.6947 0.1411 -7.0485 -0.0668 -0.3891 -4.0056 11.0924 -5.3591 1.5750 12.2772 -0.9112 1.4033 2.6592 1.8447 0.7653 -4.1903 -13.3918 -5.5106 -15.2271 7.3511 -6.1835 36.0428 4.4782 -3.2836 16.1260 -0.0000 0.0000 0.0000 -85.9883 -2.0803 17.3198 18.1079 -28.2952 -4.6003 -0.0000 -0.0000 2.9265 22.3676 23.5756 9.3463 -7.1250 0.0000 -0.0000 -7.3480 55.0916 -1.8281 -0.0000 0.0000 0.0000 89.8394 2.5378 17.6545 -16.7788 26.5653 -3.9879 0.0000 0.0000 9.8234 -16.2324 7.7831 -2.2579 7.1250 -0.0000 -0.0000 7.6989 -21.9038 4.3092
0.00 0.00 0.00 5.8012 37.8178 2.3628 0.0000 0.0000 0.0000 -28.3485 3.0983 -0.5433 0.6190 5.0350 14.0084 0.2232 -5.5078 -8.6813 0.0006 0.1643 0.4515 0.0000 0.0000 0.0000 13.2923 -0.7358 -26.2695 -7.2614 -15.5482 49.8563 -0.2067 -3.9328 -10.9568 -0.4470 -4.2897 11.8932 -6.5657 0.9532 12.8338 -1.0246 0.3497 2.1253 2.5658 0.2919 -4.9875 -13.3043 -5.2307 -15.5375 7.2432 -5.7174 36.1439 4.5048 -3.0909 16.1712 0.0000 -0.0000 0.0000 -84.5169 -2.7753 20.4145 21.4527 -32.3529 -6.2904 -0.0000 0.0000 -0.8875 23.9576 22.5197 9.6582 -7.1250 0.0000 -0.0000 -5.3101 54.3058 -1.2169 0.0000 -0.0000 0.0000 88.9220 2.2447 20.4747 -18.0102 28.1702 -4.5540 0.0000 0.0000 5.9441 -15.1701 6.9136 -1.8693 7.1250 -0.0000 -0.0000 8.5019 -22.8398 4.5843
